#!OML:ASF H:\Terrain\Patient Classification 1\Walking\liu\liu.ASF
:FULLY-SPECIFIED
:DEGREES
279
root 0.0226 15.8445 56.2047 7.74646 0.123 -4.44557
lowerback -3.54775 1.80704 0.647569
upperback 0.390369 2.30603 3.24395
thorax 2.28197 1.1395 3.10057
lowerneck -21.9464 -5.03056 -12.0238
upperneck 20.1161 -5.97253 11.8561
head 10.8578 -2.25677 5.38442
rclavicle 1.48095e-014 -2.18663e-014
rhumerus -27.2625 22.9279 -85.1375
rradius 47.1166
rwrist -20.3579
rhand -31.9712 -24.3164
rfingers 7.12502
rthumb -5.2209 -54.232
lclavicle 1.48095e-014 -2.18663e-014
lhumerus -53.8331 2.16512 82.4393
lradius 19.6245
lwrist -5.00305
lhand -8.76926 -21.5562
lfingers 7.12502
lthumb 17.1685 7.70532
rfemur 11.639 0.797791 25.3304
rtibia 21.8438
rfoot 7.25097 6.58859
rtoes -16.6665
lfemur -40.4005 4.40056 -18.5914
ltibia 31.5319
lfoot -1.28865 5.6007
ltoes -2.54792
280
root 0.0226 15.8504 56.3936 7.82817 0.123 -4.18924
lowerback -4.03379 1.85123 0.547756
upperback 0.475026 2.36024 3.03522
thorax 2.64411 1.16352 2.96547
lowerneck -21.8476 -5.12342 -11.842
upperneck 20.0617 -6.16318 11.8193
head 10.8387 -2.33636 5.30548
rclavicle -3.79182e-014 6.36111e-015
rhumerus -27.5721 21.983 -85.2483
rradius 46.7207
rwrist -20.2738
rhand -32.4948 -26.7945
rfingers 7.12502
rthumb -5.72651 -56.6971
lclavicle -3.79182e-014 6.36111e-015
lhumerus -53.2382 1.90539 82.1993
lradius 19.6796
lwrist -5.41648
lhand -8.34669 -21.5494
lfingers 7.12502
lthumb 17.5752 7.67619
rfemur 10.7047 0.306811 24.7153
rtibia 24.3528
rfoot 9.21137 6.14246
rtoes -15.0962
lfemur -40.4155 4.50504 -19.1722
ltibia 32.6974
lfoot -1.72392 5.14114
ltoes -0.663251
281
root 0.0226 15.8437 56.5824 7.85167 0.123 -4.0652
lowerback -3.99224 1.81561 0.574189
upperback 0.235371 2.32217 2.91424
thorax 2.38155 1.1486 2.81506
lowerneck -21.7863 -5.06902 -11.9653
upperneck 20.6482 -6.21408 12.2353
head 11.0712 -2.32251 5.49926
rclavicle -5.2181e-015 -2.10712e-014
rhumerus -28.4556 21.0415 -85.5067
rradius 46.3434
rwrist -19.9765
rhand -32.9478 -30.555
rfingers 7.12502
rthumb -6.16379 -60.4453
lclavicle -5.2181e-015 -2.10712e-014
lhumerus -53.2016 1.43953 82.243
lradius 19.9291
lwrist -5.57226
lhand -8.12402 -21.2189
lfingers 7.12502
lthumb 17.7895 7.98735
rfemur 9.83099 -0.221394 24.3238
rtibia 27.1017
rfoot 10.4529 5.63027
rtoes -12.0381
lfemur -40.389 4.58903 -19.6561
ltibia 33.7029
lfoot -1.91865 4.47973
ltoes 1.2663
282
root 0.0227 15.8334 56.7713 7.61159 0.123 -3.70621
lowerback -3.57724 1.72568 0.325887
upperback 0.178196 2.22523 2.87078
thorax 2.08627 1.10001 2.88685
lowerneck -22.2651 -5.01651 -12.2342
upperneck 21.2105 -6.10922 12.4838
head 11.3754 -2.25314 5.68348
rclavicle 3.04141e-014 2.3059e-014
rhumerus -29.1446 20.7363 -85.6227
rradius 46.1955
rwrist -19.8903
rhand -32.7234 -30.4557
rfingers 7.12502
rthumb -5.94715 -60.3522
lclavicle 3.04141e-014 2.3059e-014
lhumerus -52.7916 1.66932 82.2303
lradius 19.8405
lwrist -5.84164
lhand -8.129 -21.4696
lfingers 7.12502
lthumb 17.7847 7.73709
rfemur 8.9675 -0.812372 23.6041
rtibia 30.0945
rfoot 11.4597 5.07759
rtoes -9.16215
lfemur -39.9151 4.74909 -20.3135
ltibia 34.4672
lfoot -2.37221 4.07403
ltoes 2.89531
283
root 0.0227 15.8504 56.9601 7.39596 0.123 -3.06924
lowerback -3.34955 1.65741 -0.203713
upperback 0.268253 2.16105 2.73407
thorax 2.03976 1.06287 3.03387
lowerneck -22.5824 -5.09484 -12.5052
upperneck 21.1722 -6.09988 12.5461
head 11.4322 -2.25434 5.75547
rclavicle -3.38928e-014 -3.18055e-014
rhumerus -29.5001 20.5156 -85.6675
rradius 46.0375
rwrist -20.0925
rhand -32.5504 -27.6893
rfingers 7.12502
rthumb -5.78012 -57.5905
lclavicle -3.38928e-014 -3.18055e-014
lhumerus -52.1824 1.33655 82.7569
lradius 20.033
lwrist -5.32787
lhand -8.28781 -21.6449
lfingers 7.12502
lthumb 17.6319 7.5756
rfemur 7.74109 -1.23994 22.5674
rtibia 33.3406
rfoot 12.6481 4.78783
rtoes -7.29304
lfemur -39.173 4.71266 -21.1481
ltibia 34.9092
lfoot -3.15279 4.04718
ltoes 3.74036
284
root 0.0227 15.8835 57.1489 7.35409 0.123 -2.31207
lowerback -3.44698 1.59607 -0.861427
upperback 0.30709 2.10978 2.511
thorax 2.12176 1.02999 3.17525
lowerneck -22.5881 -5.12617 -12.5355
upperneck 21.0109 -6.10123 12.4842
head 11.3716 -2.26442 5.72934
rclavicle -2.48978e-014 -2.78299e-015
rhumerus -29.8057 20.0142 -85.7649
rradius 45.7778
rwrist -20.2749
rhand -32.3043 -26.2183
rfingers 7.12502
rthumb -5.54256 -56.1258
lclavicle -2.48978e-014 -2.78299e-015
lhumerus -51.7321 0.55394 83.5114
lradius 20.5168
lwrist -4.47355
lhand -8.69102 -21.216
lfingers 7.12502
lthumb 17.2438 8.03889
rfemur 6.13342 -1.58785 21.4547
rtibia 36.8322
rfoot 13.7981 4.47181
rtoes -6.82819
lfemur -38.3937 4.64723 -22.1371
ltibia 34.9871
lfoot -3.90111 3.96378
ltoes 3.32465
285
root 0.0227 15.9067 57.3378 7.27132 0.123 -1.47834
lowerback -3.45437 1.53594 -1.57986
upperback 0.309878 2.06491 2.28073
thorax 2.11475 1.00074 3.33983
lowerneck -22.5211 -5.08002 -12.415
upperneck 20.9259 -6.01277 12.2415
head 11.2998 -2.24533 5.62532
rclavicle 2.20651e-014 -1.59028e-014
rhumerus -30.2778 19.5639 -85.9396
rradius 45.6466
rwrist -20.5018
rhand -31.9069 -26.9538
rfingers 7.12502
rthumb -5.15887 -56.871
lclavicle 2.20651e-014 -1.59028e-014
lhumerus -51.032 0.571621 83.603
lradius 20.3976
lwrist -4.3963
lhand -8.96441 -21.4619
lfingers 7.12502
lthumb 16.9807 7.81588
rfemur 4.45588 -1.84494 20.3256
rtibia 40.4234
rfoot 14.3718 3.86296
rtoes -8.44632
lfemur -37.4758 4.63144 -23.1954
ltibia 34.7612
lfoot -4.57912 3.84662
ltoes 2.88584
286
root 0.0228 15.9251 57.5266 7.05558 0.123 -0.581696
lowerback -3.07376 1.47218 -2.48447
upperback 0.181919 2.01513 2.15304
thorax 1.74681 0.9752 3.69983
lowerneck -22.3424 -5.03912 -12.6188
upperneck 20.9742 -5.87023 12.0996
head 11.2638 -2.2204 5.63104
rclavicle 2.33572e-014 2.38542e-015
rhumerus -31.1116 19.3967 -86.0719
rradius 45.6399
rwrist -20.8363
rhand -31.7452 -28.7053
rfingers 7.12502
rthumb -5.00273 -58.6262
lclavicle 2.33572e-014 2.38542e-015
lhumerus -50.4693 0.874519 83.657
lradius 20.1039
lwrist -4.63213
lhand -9.22623 -22.3639
lfingers 7.12502
lthumb 16.7287 6.93534
rfemur 2.84234 -2.0333 19.1914
rtibia 43.966
rfoot 15.03 3.03619
rtoes -8.74711
lfemur -36.343 4.5726 -24.2649
ltibia 34.343
lfoot -5.28678 3.77186
ltoes 2.72608
287
root 0.0228 15.9578 57.7155 6.89478 0.123 0.37274
lowerback -2.6553 1.34061 -3.49998
upperback -0.0824621 1.86669 2.02018
thorax 1.22468 0.909159 4.11189
lowerneck -22.3105 -4.89286 -12.8585
upperneck 21.3956 -5.65548 12.2359
head 11.3957 -2.13014 5.77981
rclavicle -1.74931e-014 -2.06736e-014
rhumerus -32.0349 19.2358 -86.2564
rradius 45.3383
rwrist -20.9742
rhand -31.7448 -28.6187
rfingers 7.12502
rthumb -5.00231 -58.5397
lclavicle -1.74931e-014 -2.06736e-014
lhumerus -50.3307 0.872069 83.9193
lradius 20.1957
lwrist -4.85287
lhand -9.75687 -22.733
lfingers 7.12502
lthumb 16.2178 6.60862
rfemur 1.16288 -2.33495 18.0183
rtibia 47.3971
rfoot 16.0208 1.94083
rtoes -7.3969
lfemur -35.1788 4.53049 -25.4508
ltibia 33.7836
lfoot -5.78701 3.62266
ltoes 1.4168
288
root 0.0228 15.9919 57.9043 6.92751 0.123 1.08391
lowerback -2.67028 1.16564 -4.10689
upperback -0.196591 1.6541 1.81075
thorax 1.12532 0.804493 4.22977
lowerneck -22.3626 -4.70393 -12.6488
upperneck 21.6036 -5.48864 12.2936
head 11.4537 -2.02956 5.80401
rclavicle -8.64713e-015 1.03368e-014
rhumerus -32.0233 18.8702 -86.5299
rradius 44.163
rwrist -20.9091
rhand -31.8895 -27.21
rfingers 7.12502
rthumb -5.14208 -57.1276
lclavicle -8.64713e-015 1.03368e-014
lhumerus -49.9328 0.398809 84.3193
lradius 20.4993
lwrist -4.53097
lhand -10.3465 -22.8957
lfingers 7.12502
lthumb 15.6499 6.49133
rfemur -0.713739 -2.69966 17.1672
rtibia 50.6786
rfoot 16.5205 0.412782
rtoes -7.78211
lfemur -34.175 4.45212 -26.3722
ltibia 33.184
lfoot -5.92402 3.4992
ltoes 0.84041
